<?xml version="1.0" standalone="no"?>
<!DOCTYPE svg PUBLIC "-//W3C//DTD SVG 20010904//EN"
 "http://www.w3.org/TR/2001/REC-SVG-20010904/DTD/svg10.dtd">
<svg version="1.0" xmlns="http://www.w3.org/2000/svg"
 width="320.000000pt" height="320.000000pt" viewBox="0 0 320.000000 320.000000"
 preserveAspectRatio="xMidYMid meet">
<metadata>
Created by potrace 1.14, written by Peter Selinger 2001-2017
</metadata>
<g transform="translate(0.000000,320.000000) scale(0.100000,-0.100000)"
fill="#000000" stroke="none">
<path d="M693 3189 c-217 -28 -391 -121 -514 -276 -105 -132 -150 -263 -169
-489 -13 -164 -13 -1489 1 -1651 14 -162 65 -371 115 -471 46 -90 130 -191
212 -254 l63 -48 1158 0 1158 0 45 30 c90 60 285 286 339 393 90 178 103 347
96 1314 -5 826 -9 872 -97 1048 -86 176 -249 316 -430 369 -144 43 -204 46
-1080 45 -459 -1 -863 -5 -897 -10z m379 -958 c4 -3 37 -89 74 -191 121 -336
141 -392 278 -769 75 -206 136 -376 136 -378 0 -2 -50 -2 -112 -1 l-111 3 -58
174 c-32 96 -63 177 -68 180 -5 3 -23 5 -40 5 -17 -1 -131 -2 -254 -3 l-223
-1 -59 -180 -59 -180 -113 0 -112 0 13 38 c8 20 114 312 236 647 122 336 227
622 232 637 9 25 15 27 71 31 70 4 159 -2 169 -12z m1279 0 c4 -3 113 -298
242 -656 130 -357 239 -658 242 -668 7 -16 -1 -17 -105 -15 l-113 3 -61 180
-61 180 -259 0 -258 0 -63 -180 -62 -180 -111 -3 -112 -3 39 108 c53 148 438
1204 446 1225 5 13 22 18 68 21 70 4 159 -2 168 -12z"/>
<path d="M856 1725 c-53 -157 -96 -290 -96 -295 0 -11 382 -14 392 -4 6 5
-182 568 -194 579 -3 3 -49 -123 -102 -280z"/>
<path d="M2136 1728 c-53 -156 -96 -289 -96 -295 0 -10 46 -13 195 -13 149 0
195 3 195 12 0 18 -181 561 -190 571 -4 5 -51 -119 -104 -275z"/>
</g>
</svg>
